<?xml version="1.0" encoding="UTF-8" standalone="no"?>
<svg
   xmlns:svg="http://www.w3.org/2000/svg"
   xmlns="http://www.w3.org/2000/svg"
   id="cogneco-h5b-document"
   height="75mm"
   width="240mm"
   version="1.1">
  <path
     d="m 468.94524,83.221935 0,93.956615 17.71486,0 0,-52.23719 60.49806,58.37984 0,-94.718328 -17.71485,0 0,53.008658 -60.49807,-58.389595 z m 248.57432,5.361436 c -24.35655,0 -44.28716,19.930919 -44.28716,44.287809 0,6.49651 1.4526,12.65911 3.99415,18.2327 -4.83105,5.13233 -11.65515,8.35953 -19.33595,8.35953 -14.78171,0 -26.57226,-11.79069 -26.57226,-26.57273 0,-14.78198 11.7905,-26.58242 26.57226,-26.58242 4.5191,0 8.75245,1.11261 12.46095,3.06645 2.6795,-5.33109 6.2173,-10.155917 10.459,-14.277584 -6.70335,-4.093216 -14.53475,-6.504004 -22.91995,-6.504004 -24.35651,0 -44.28712,19.940668 -44.28712,44.297558 0,7.05867 1.71715,13.72068 4.68751,19.65852 -4.71056,4.29877 -10.99061,6.91421 -17.93946,6.91421 -11.66425,0 -21.44306,-7.35512 -25.05861,-17.71513 l 30.61526,0 c -0.494,-2.8865 -0.81055,-5.83595 -0.81055,-8.8576 0,-3.02269 0.316,-5.96984 0.81055,-8.85754 l -30.61526,0 c 3.61555,-10.36256 13.39436,-17.72488 25.05861,-17.72488 3.8458,0 7.4856,0.80391 10.7715,2.24613 2.8039,-5.34763 6.51435,-10.13511 10.89846,-14.218976 -6.41951,-3.635059 -13.80581,-5.742292 -21.66996,-5.742292 -24.35651,0 -44.28711,19.940668 -44.28711,44.297558 0,24.35695 19.9306,44.28787 44.28711,44.28787 10.973,0 21.00096,-4.08017 28.74026,-10.76193 7.76125,6.68271 17.8167,10.76193 28.79881,10.76193 11.47525,0 21.89665,-4.49367 29.77541,-11.72874 7.8924,7.24537 18.3636,11.71894 29.85355,11.71894 24.35651,0 44.28712,-19.94067 44.28712,-44.29757 0,-24.35689 -19.93061,-44.287809 -44.28712,-44.287809 z m -420.48842,0.01 c -24.35651,0 -44.28711,19.940668 -44.28711,44.297558 0,24.3569 19.9306,44.28782 44.28711,44.28782 11.38945,0 21.74836,-4.42362 29.60936,-11.56269 7.87605,7.15497 18.2863,11.56269 29.69731,11.56269 14.687,0 27.7319,-7.27482 35.80076,-18.36945 8.0718,11.09373 21.1145,18.36945 35.80081,18.36945 12.17825,0 23.2521,-4.98068 31.27931,-13.00801 l -0.0685,-0.0685 0.03,0 0,-28.60396 -17.71486,0 0,20.29327 c -3.9541,2.32379 -8.5645,3.67196 -13.5254,3.67196 -14.78181,0 -26.58206,-11.79069 -26.58206,-26.57273 0,-14.78198 11.80025,-26.58242 26.58206,-26.58242 7.3909,0 14.0328,2.94639 18.82815,7.74422 l 12.45116,-12.4416 c -8.02721,-8.029778 -19.10106,-13.017758 -31.27931,-13.017758 -14.68726,0 -27.72911,7.281417 -35.80081,18.379198 -8.06871,-11.098731 -21.11276,-18.379198 -35.80076,-18.379198 -24.35651,0 -44.29692,19.940668 -44.29692,44.297558 0,6.58896 1.50025,12.83291 4.11135,18.4671 -4.818,4.99093 -11.5612,8.10563 -19.1211,8.10563 -14.78181,0 -26.57226,-11.79069 -26.57226,-26.57273 0,-14.78198 11.79045,-26.58242 26.57226,-26.58242 4.4173,0 8.5588,1.06721 12.20705,2.93949 2.6981,-5.33353 6.2449,-10.161809 10.50781,-14.277576 -6.65986,-4.016464 -14.41581,-6.377302 -22.71506,-6.377302 z m 420.48842,17.705338 c 14.78176,0 26.57226,11.79069 26.57226,26.57267 0,14.78204 -11.7905,26.58248 -26.57226,26.58248 -14.7818,0 -26.5723,-11.80044 -26.5723,-26.58248 0,-14.78198 11.7905,-26.57267 26.5723,-26.57267 z m -361.18175,0.01 c 14.78175,0 26.57225,11.80044 26.57225,26.58247 0,14.78199 -11.7905,26.57268 -26.57225,26.57268 -14.78181,0 -26.57231,-11.79069 -26.57231,-26.57268 0,-14.78203 11.7905,-26.58247 26.57231,-26.58247 z M 132.87094,44.295508 c -48.817965,0 -88.584027,39.766691 -88.584027,88.585422 0,48.81874 39.766062,88.58543 88.584027,88.58543 48.81796,0 88.58398,-39.76669 88.58398,-88.58543 0,-48.818731 -39.76602,-88.585422 -88.58398,-88.585422 z m -14.2676,19.140959 13.8965,74.044143 -10.75195,2.02153 6.43555,34.20955 -22.35356,4.18952 4.1309,22.0218 c -27.925606,-9.4983 -47.949262,-35.83267 -47.949262,-67.04208 0,-34.355449 24.226157,-62.873008 56.591822,-69.444463 z m 40.59571,3.652408 c 26.13001,10.422768 44.54106,35.869675 44.54106,65.792055 0,33.26024 -22.74656,60.97219 -53.56452,68.67301 l -4.44335,-23.65273 22.35356,-4.21882 -6.40625,-34.18025 10.75195,-2.02153 -13.23245,-70.391735 z m -40.37111,41.533865 -16.08396,3.58401 15.66406,7.64662 0.42,-11.23063 z m 38.77931,0.72267 -0.342,8.97474 -12.53906,-6.1134 12.88086,-2.86134 z"
     style="color:#000000"
     id="cogneco-h5b" />
</svg>
