<?xml version="1.0" encoding="UTF-8" standalone="no"?>
<svg
   xmlns:dc="http://purl.org/dc/elements/1.1/"
   xmlns:cc="http://creativecommons.org/ns#"
   xmlns:rdf="http://www.w3.org/1999/02/22-rdf-syntax-ns#"
   xmlns:svg="http://www.w3.org/2000/svg"
   xmlns="http://www.w3.org/2000/svg"
   version="1.1"
   width="96mm"
   height="30mm"
   id="cogneco_horizontal_logotype_document">
  <metadata
     id="metadata8">
    <rdf:RDF>
      <cc:Work
         rdf:about="">
        <dc:format>image/svg+xml</dc:format>
        <dc:type
           rdf:resource="http://purl.org/dc/dcmitype/StillImage" />
        <dc:title></dc:title>
      </cc:Work>
    </rdf:RDF>
  </metadata>
  <defs
     id="defs6" />
  <g
     id="g6251"
     transform="matrix(2.0000006,0,0,2.0000322,-132.83228,-700.51434)">
    <path
       d="m 160.20514,366.89564 0,18.79102 3.54297,0 0,-10.44727 12.09961,11.67578 0,-18.94336 -3.54297,0 0,10.60156 -12.09961,-11.67773 z m 49.71485,1.07227 c -4.87131,0 -8.85743,3.98612 -8.85743,8.85742 0,1.29928 0.29052,2.53178 0.79883,3.64648 -0.96621,1.02645 -2.33103,1.67188 -3.86719,1.67188 -2.95634,0 -5.31445,-2.3581 -5.31445,-5.31446 0,-2.95635 2.3581,-5.3164 5.31445,-5.3164 0.90382,0 1.75049,0.22252 2.49219,0.61328 0.5359,-1.0662 1.24346,-2.03115 2.0918,-2.85547 -1.34067,-0.81863 -2.90695,-1.30078 -4.58399,-1.30078 -4.8713,0 -8.85742,3.98807 -8.85742,8.85937 0,1.41171 0.34343,2.74409 0.9375,3.93164 -0.94211,0.85974 -2.19812,1.38282 -3.58789,1.38282 -2.33285,0 -4.28861,-1.471 -5.01172,-3.54297 l 6.12305,0 c -0.0988,-0.57729 -0.16211,-1.16717 -0.16211,-1.77149 0,-0.60453 0.0632,-1.19395 0.16211,-1.77148 l -6.12305,0 c 0.72311,-2.07248 2.67887,-3.54492 5.01172,-3.54492 0.76916,0 1.49712,0.16078 2.1543,0.44922 0.56078,-1.06951 1.30287,-2.02699 2.17969,-2.84375 -1.2839,-0.727 -2.76116,-1.14844 -4.33399,-1.14844 -4.8713,0 -8.85742,3.98807 -8.85742,8.85937 0,4.87131 3.98612,8.85743 8.85742,8.85743 2.1946,0 4.20019,-0.81602 5.74805,-2.15235 1.55225,1.33652 3.56334,2.15235 5.75976,2.15235 2.29505,0 4.37933,-0.89872 5.95508,-2.34571 1.57848,1.44905 3.67272,2.34375 5.97071,2.34375 4.8713,0 8.85742,-3.98807 8.85742,-8.85937 0,-4.8713 -3.98612,-8.85742 -8.85742,-8.85742 z m -84.09766,0.002 c -4.8713,0 -8.85742,3.98807 -8.85742,8.85937 0,4.8713 3.98612,8.85742 8.85742,8.85742 2.27789,0 4.34967,-0.88471 5.92187,-2.3125 1.57521,1.43097 3.65726,2.3125 5.93946,2.3125 2.9374,0 5.54638,-1.45494 7.16015,-3.67383 1.61436,2.21871 4.2229,3.67383 7.16016,3.67383 2.43565,0 4.65042,-0.99612 6.25586,-2.60156 l -0.0137,-0.0137 0.006,0 0,-5.7207 -3.54297,0 0,4.05859 c -0.79082,0.46475 -1.7129,0.73438 -2.70508,0.73438 -2.95636,0 -5.31641,-2.3581 -5.31641,-5.31446 0,-2.95635 2.36005,-5.3164 5.31641,-5.3164 1.47818,0 2.80656,0.58927 3.76563,1.54882 l 2.49023,-2.48828 c -1.60544,-1.60593 -3.82021,-2.60351 -6.25586,-2.60351 -2.93745,0 -5.54582,1.45626 -7.16016,3.67578 -1.61374,-2.21971 -4.22255,-3.67578 -7.16015,-3.67578 -4.8713,0 -8.85938,3.98807 -8.85938,8.85937 0,1.31777 0.30005,2.56654 0.82227,3.69336 -0.9636,0.99817 -2.31224,1.6211 -3.82422,1.6211 -2.95636,0 -5.31445,-2.3581 -5.31445,-5.31446 0,-2.95635 2.35809,-5.3164 5.31445,-5.3164 0.88346,0 1.71176,0.21344 2.44141,0.58789 0.53962,-1.06669 1.24898,-2.03233 2.10156,-2.85547 -1.33197,-0.80328 -2.88316,-1.27544 -4.54301,-1.27544 z m 84.09766,3.54101 c 2.95635,0 5.31445,2.3581 5.31445,5.31445 0,2.95636 -2.3581,5.31641 -5.31445,5.31641 -2.95636,0 -5.31446,-2.36005 -5.31446,-5.31641 0,-2.95635 2.3581,-5.31445 5.31446,-5.31445 z m -72.23633,0.002 c 2.95635,0 5.31445,2.36005 5.31445,5.31641 0,2.95635 -2.3581,5.31445 -5.31445,5.31445 -2.95636,0 -5.31446,-2.3581 -5.31446,-5.31445 0,-2.95636 2.3581,-5.31641 5.31446,-5.31641 z M 92.9903,359.11048 c -9.76359,0 -17.7168,7.95321 -17.7168,17.7168 0,9.76359 7.95321,17.7168 17.7168,17.7168 9.76359,0 17.71679,-7.95321 17.71679,-17.7168 0,-9.76359 -7.9532,-17.7168 -17.71679,-17.7168 z m -2.85352,3.82813 2.7793,14.80859 -2.15039,0.4043 1.28711,6.8418 -4.47071,0.83789 0.82618,4.40429 c -5.58512,-1.89963 -9.58985,-7.16642 -9.58985,-13.4082 0,-6.87098 4.84523,-12.5744 11.31836,-13.88867 z m 8.11914,0.73047 c 5.226,2.08452 8.90821,7.17382 8.90821,13.1582 0,6.65194 -4.54931,12.19424 -10.7129,13.73438 l -0.88867,-4.73047 4.47071,-0.84375 -1.28125,-6.83594 2.15039,-0.4043 -2.64649,-14.07812 z m -8.07422,8.30664 -3.21679,0.71679 3.13281,1.5293 0.084,-2.24609 z m 7.75586,0.14453 -0.0684,1.79492 -2.50781,-1.22266 2.57617,-0.57226 z"
       style="color:#000000;font-style:normal;font-variant:normal;font-weight:normal;font-stretch:normal;font-size:medium;line-height:normal;font-family:sans-serif;text-indent:0;text-align:start;text-decoration:none;text-decoration-line:none;text-decoration-style:solid;text-decoration-color:#000000;letter-spacing:normal;word-spacing:normal;text-transform:none;direction:ltr;block-progression:tb;writing-mode:lr-tb;baseline-shift:baseline;text-anchor:start;white-space:normal;clip-rule:nonzero;display:inline;overflow:visible;visibility:visible;opacity:1;isolation:auto;mix-blend-mode:normal;color-interpolation:sRGB;color-interpolation-filters:linearRGB;solid-color:#000000;solid-opacity:1;fill:#000000;fill-opacity:1;fill-rule:nonzero;stroke:none;stroke-width:3.54330707;stroke-linecap:round;stroke-linejoin:miter;stroke-miterlimit:4;stroke-dasharray:none;stroke-dashoffset:0;stroke-opacity:1;color-rendering:auto;image-rendering:auto;shape-rendering:auto;text-rendering:auto;enable-background:accumulate"
       id="path6255" />
  </g>
</svg>
