<?xml version="1.0" encoding="UTF-8" standalone="no"?>
<svg
   xmlns:svg="http://www.w3.org/2000/svg"
   xmlns="http://www.w3.org/2000/svg"
   id="cogneco-h2b-document"
   height="30mm"
   width="96mm"
   version="1.1">
  <path
     d="m 187.5781,33.288754 0,37.582645 7.08594,0 0,-20.894876 24.19923,23.351936 0,-37.88733 -7.08595,0 0,21.203461 -24.19922,-23.355836 z m 99.42973,2.144575 c -9.74263,0 -17.71487,7.972368 -17.71487,17.715125 0,2.598602 0.58104,5.063641 1.59766,7.293077 -1.93242,2.052933 -4.66206,3.343814 -7.73438,3.343814 -5.91268,0 -10.6289,-4.716276 -10.6289,-10.629091 0,-5.912795 4.7162,-10.632971 10.6289,-10.632971 1.80764,0 3.50098,0.445047 4.98438,1.226579 1.0718,-2.132434 2.48692,-4.062365 4.1836,-5.711031 -2.68134,-1.637287 -5.8139,-2.601602 -9.16798,-2.601602 -9.7426,0 -17.71485,7.976268 -17.71485,17.719025 0,2.823465 0.68686,5.488268 1.875,7.863407 -1.88422,1.719507 -4.39624,2.765684 -7.17578,2.765684 -4.6657,0 -8.57722,-2.942047 -10.02344,-7.086054 l 12.2461,0 c -0.1976,-1.154599 -0.32422,-2.334378 -0.32422,-3.543037 0,-1.20908 0.1264,-2.387939 0.32422,-3.543017 l -12.2461,0 c 1.44622,-4.145027 5.35774,-7.089954 10.02344,-7.089954 1.53832,0 2.99424,0.321565 4.3086,0.898454 1.12156,-2.139054 2.60574,-4.054045 4.35938,-5.687591 -2.5678,-1.454024 -5.52232,-2.296917 -8.66798,-2.296917 -9.7426,0 -17.71484,7.976268 -17.71484,17.719025 0,9.742777 7.97224,17.715145 17.71484,17.715145 4.3892,0 8.40038,-1.632066 11.49611,-4.304769 3.1045,2.673083 7.12668,4.304769 11.51952,4.304769 4.5901,0 8.75866,-1.797469 11.91016,-4.691495 3.15696,2.898146 7.34544,4.687575 11.94143,4.687575 9.7426,0 17.71484,-7.976268 17.71484,-17.719025 0,-9.742757 -7.97224,-17.715125 -17.71484,-17.715125 z m -168.19537,0.004 c -9.74261,0 -17.71485,7.976268 -17.71485,17.719025 0,9.742757 7.97224,17.715125 17.71485,17.715125 4.55578,0 8.69934,-1.769448 11.84374,-4.625074 3.15042,2.861986 7.31452,4.625074 11.87892,4.625074 5.8748,0 11.09277,-2.909927 14.32031,-7.347778 3.22872,4.437491 8.4458,7.347778 14.32032,7.347778 4.8713,0 9.30084,-1.992272 12.51172,-5.203204 l -0.0274,-0.0274 0.012,0 0,-11.441584 -7.08594,0 0,8.11731 c -1.58164,0.929515 -3.4258,1.468784 -5.41016,1.468784 -5.91272,0 -10.63282,-4.716276 -10.63282,-10.629091 0,-5.912795 4.7201,-10.632971 10.63282,-10.632971 2.95636,0 5.61312,1.178559 7.53126,3.09769 l 4.98046,-4.976641 c -3.21088,-3.211911 -7.64042,-5.207103 -12.51172,-5.207103 -5.8749,0 -11.09164,2.912567 -14.32032,7.351678 -3.22748,-4.439491 -8.44511,-7.351678 -14.32031,-7.351678 -9.7426,0 -17.71876,7.976268 -17.71876,17.719025 0,2.635582 0.6001,5.133163 1.64454,7.386839 -1.9272,1.996372 -4.62448,3.242252 -7.64844,3.242252 -5.91273,0 -10.62891,-4.716276 -10.62891,-10.629091 0,-5.912795 4.71618,-10.632971 10.62891,-10.632971 1.76692,0 3.42352,0.426887 4.88282,1.175799 1.07924,-2.133415 2.49796,-4.064726 4.20312,-5.711032 -2.66394,-1.606586 -5.76632,-2.550921 -9.08602,-2.550921 z m 168.19537,7.082134 c 5.9127,0 10.6289,4.716276 10.6289,10.629071 0,5.912815 -4.7162,10.632991 -10.6289,10.632991 -5.91273,0 -10.62893,-4.720176 -10.62893,-10.632991 0,-5.912795 4.7162,-10.629071 10.62893,-10.629071 z m -144.47271,0.004 c 5.9127,0 10.62891,4.720176 10.62891,10.632991 0,5.912795 -4.71621,10.629071 -10.62891,10.629071 -5.91272,0 -10.62892,-4.716276 -10.62892,-10.629071 0,-5.912815 4.7162,-10.632991 10.62892,-10.632991 z M 53.148376,17.718183 c -19.527186,0 -35.433611,15.906676 -35.433611,35.434171 0,19.527494 15.906425,35.43417 35.433611,35.43417 19.527186,0 35.43359,-15.906676 35.43359,-35.43417 0,-19.527495 -15.906404,-35.434171 -35.43359,-35.434171 z m -5.707042,7.656384 5.558602,29.617656 -4.300782,0.808613 2.574221,13.683821 -8.941422,1.675807 1.65236,8.808722 C 32.81407,76.169864 24.804607,65.636115 24.804607,53.152354 c 0,-13.742181 9.690463,-25.149205 22.636727,-27.777787 z m 16.238285,1.460963 c 10.452003,4.169107 17.816425,14.347871 17.816425,26.316824 0,13.304094 -9.098622,24.388872 -21.425806,27.469202 L 58.292897,71.160464 67.23432,69.472937 64.671819,55.800836 68.972601,54.992223 63.679619,26.83553 Z m -16.148445,16.613548 -6.433582,1.433603 6.265622,3.058649 0.168,-4.492252 z m 15.511725,0.289064 -0.1368,3.589898 -5.015622,-2.445359 5.152342,-1.144539 z"
     style="color:#000000;"
     id="cogneco-h2b" />
</svg>
