<?xml version="1.0" encoding="UTF-8" standalone="no"?>
<svg
   xmlns:svg="http://www.w3.org/2000/svg"
   xmlns="http://www.w3.org/2000/svg"
   id="cogneco-v3b-document"
   height="52.5mm"
   width="45mm"
   version="1.1">
  <path
     id="congeco-v3b"
     style="color:#000000;"
     d="m 70.819448,143.61379 0,21.83049 4.116067,0 0,-12.13712 14.056892,13.56437 0,-22.00749 -4.116098,0 0,12.31639 -14.056861,-13.56664 z m 57.756922,1.24572 c -5.65931,0 -10.29026,4.63087 -10.29026,10.29012 0,1.50945 0.33752,2.94131 0.92806,4.23632 -1.12252,1.19247 -2.70812,1.94231 -4.49277,1.94231 -3.43457,0 -6.17413,-2.73954 -6.17413,-6.1741 0,-3.43453 2.73953,-6.17631 6.17413,-6.17631 1.05002,0 2.03365,0.25859 2.89532,0.71248 0.62262,-1.23867 1.44464,-2.35972 2.43018,-3.31735 -1.55752,-0.95107 -3.37717,-1.51119 -5.3255,-1.51119 -5.65931,0 -10.29023,4.63315 -10.29023,10.29237 0,1.64006 0.399,3.18797 1.08914,4.5676 -1.09451,0.9988 -2.55369,1.6065 -4.16827,1.6065 -2.710225,0 -4.982366,-1.70894 -5.822445,-4.11606 l 7.113535,0 c -0.11489,-0.67066 -0.18839,-1.35596 -0.18839,-2.05804 0,-0.70231 0.0735,-1.38705 0.18839,-2.05801 l -7.113535,0 c 0.840079,-2.40771 3.11222,-4.1183 5.822445,-4.1183 0.89357,0 1.73929,0.18689 2.50278,0.52186 0.6515,-1.24251 1.51363,-2.35485 2.5323,-3.30373 -1.49158,-0.8446 -3.20783,-1.33419 -5.03508,-1.33419 -5.659308,0 -10.290229,4.63315 -10.290229,10.29237 0,5.65925 4.630921,10.29012 10.290229,10.29012 2.54961,0 4.87962,-0.94798 6.67789,-2.50047 1.80333,1.5527 4.13973,2.50047 6.69147,2.50047 2.66631,0 5.08776,-1.04406 6.91839,-2.72511 1.83382,1.68345 4.26685,2.72286 6.93658,2.72286 5.65927,0 10.29023,-4.63315 10.29023,-10.2924 0,-5.65925 -4.63096,-10.29012 -10.29023,-10.29012 z m -97.701657,0.002 c -5.659308,0 -10.290229,4.63318 -10.290229,10.2924 0,5.65925 4.630921,10.29012 10.290229,10.29012 2.646387,0 5.053286,-1.0278 6.879843,-2.68653 1.830007,1.66242 4.248847,2.68653 6.900243,2.68653 3.412547,0 6.443588,-1.69028 8.318385,-4.26806 1.875516,2.57757 4.906017,4.26806 8.318414,4.26806 2.829654,0 5.402692,-1.15722 7.267828,-3.02234 l -0.015,-0.015 0.006,0 0,-6.64604 -4.116068,0 0,4.71508 c -0.918768,0.53992 -1.989994,0.85315 -3.14267,0.85315 -3.434596,0 -6.176412,-2.73951 -6.176412,-6.17407 0,-3.43456 2.741816,-6.17634 6.176412,-6.17634 1.717298,0 3.260539,0.68458 4.374755,1.79935 l 2.893073,-2.89076 c -1.865196,-1.86575 -4.438234,-3.02471 -7.267888,-3.02471 -3.412607,0 -6.442928,1.69184 -8.318414,4.27037 -1.874797,-2.57877 -4.905598,-4.27037 -8.318415,-4.27037 -5.659278,0 -10.29248,4.63318 -10.29248,10.2924 0,1.53093 0.348566,2.98169 0.955278,4.29077 -1.119466,1.15962 -2.686286,1.8833 -4.442854,1.8833 -3.434596,0 -6.174131,-2.73951 -6.174131,-6.17407 0,-3.43456 2.739535,-6.17634 6.174131,-6.17634 1.026377,0 1.988675,0.24809 2.836345,0.68299 0.626902,-1.23921 1.451021,-2.36107 2.441519,-3.31735 -1.547381,-0.93316 -3.349518,-1.4817 -5.277864,-1.4817 z m 97.701657,4.11381 c 3.43456,0 6.17413,2.7395 6.17413,6.17406 0,3.43456 -2.73957,6.17635 -6.17413,6.17635 -3.4346,0 -6.17417,-2.74179 -6.17417,-6.17635 0,-3.43456 2.73957,-6.17406 6.17417,-6.17406 z m -83.921571,0.002 c 3.434566,0 6.174132,2.74178 6.174132,6.17634 0,3.43456 -2.739566,6.17407 -6.174132,6.17407 -3.434597,0 -6.174162,-2.73951 -6.174162,-6.17407 0,-3.43456 2.739565,-6.17634 6.174162,-6.17634 z M 79.723695,26.578242 c -29.290399,0 -53.149697,23.859073 -53.149697,53.149159 0,29.290089 23.859298,53.149159 53.149697,53.149159 29.290395,0 53.149725,-23.85907 53.149725,-53.149159 0,-29.290086 -23.85933,-53.149159 -53.149725,-53.149159 z m -8.560422,11.484122 8.337765,44.424733 -6.451089,1.212872 3.861281,20.524921 -13.41193,2.51361 2.478479,13.21256 C 49.222631,114.25231 37.208623,98.452305 37.208623,79.727401 c 0,-20.612459 14.535506,-37.722319 33.95465,-41.665037 z m 24.357112,2.191359 c 15.677775,6.253414 26.724265,21.520957 26.724265,39.473678 0,19.955355 -13.64773,36.581869 -32.138267,41.202179 L 87.440407,106.7385 100.85234,104.20731 97.008636,83.699969 103.45972,82.487097 95.520385,40.253723 Z m -24.222354,24.919338 -9.650277,2.15032 9.398311,4.587793 0.251996,-6.738113 z m 23.267286,0.43358 -0.205198,5.384634 -7.523364,-3.667894 7.728442,-1.71674 z" />
</svg>
