<?xml version="1.0" encoding="UTF-8" standalone="no"?>
<svg
   xmlns:svg="http://www.w3.org/2000/svg"
   xmlns="http://www.w3.org/2000/svg"
   version="1.1"
   width="30mm"
   height="35mm"
   id="cogneco-v2w-document">
  <path
     d="m 53.148438,17.71875 c -19.527176,0 -35.433594,15.906418 -35.433594,35.433594 0,19.527177 15.906418,35.433595 35.433594,35.433595 19.527177,0 35.433595,-15.906418 35.433595,-35.433595 0,-19.527176 -15.906418,-35.433594 -35.433595,-35.433594 z M 47.441406,25.375 53,54.992188 l -4.300782,0.808594 2.57422,13.683595 -8.941406,1.67578 1.652344,8.808594 C 32.814136,76.169485 24.804688,65.635895 24.804688,53.152344 c 0,-13.741968 9.690464,-25.1488 22.636718,-27.777344 z m 16.238282,1.460938 c 10.451993,4.169042 17.816407,14.34765 17.816407,26.316406 0,13.303877 -9.098602,24.388485 -21.425783,27.468751 l -1.777344,-9.460938 8.941409,-1.6875 -2.5625,-13.671875 4.30078,-0.808594 -5.292969,-28.15625 z m -0.300782,16.61328 -0.17188,4.492188 -6.265626,-3.058594 6.4375,-1.433594 z m -16.078124,0.289064 -5.148438,1.14453 5.015624,2.445312 0.13282,-3.589842 z m -0.0886,52.005989 0,14.553999 2.744098,0 0,-8.0916 9.371378,9.04312 0,-14.671999 -2.744098,0 0,8.211119 -9.371378,-9.044639 z m 38.505103,0.8305 c -3.772922,0 -6.860248,3.08732 -6.860248,6.860239 0,1.00632 0.225012,1.96092 0.618708,2.82428 -0.748348,0.795 -1.805428,1.2949 -2.995214,1.2949 -2.289742,0 -4.116144,-1.8264 -4.116144,-4.11616 0,-2.28974 1.826394,-4.117639 4.116144,-4.117639 0.700028,0 1.35579,0.1724 1.93025,0.475 0.415066,-0.8258 0.963084,-1.57318 1.62014,-2.21162 -1.038376,-0.63406 -2.251488,-1.00748 -3.55039,-1.00748 -3.772916,0 -6.860242,3.08884 -6.860242,6.861739 0,1.0934 0.265994,2.12536 0.726112,3.04514 -0.729682,0.66588 -1.702486,1.07102 -2.778888,1.07102 -1.806838,0 -3.321613,-1.13932 -3.881675,-2.7441 l 4.742421,0 c -0.07654,-0.44712 -0.12556,-0.904 -0.12556,-1.37206 0,-0.46822 0.04896,-0.92472 0.12556,-1.37204 l -4.742421,0 c 0.560062,-1.60518 2.074837,-2.745599 3.881675,-2.745599 0.595728,0 1.159548,0.1246 1.668546,0.34792 0.434334,-0.82836 1.009098,-1.56994 1.688212,-2.20254 -0.994406,-0.56308 -2.138572,-0.88948 -3.356758,-0.88948 -3.772917,0 -6.860243,3.08884 -6.860243,6.861739 0,3.77292 3.087326,6.86024 6.860243,6.86024 1.699758,0 3.253126,-0.632 4.451974,-1.66702 1.202248,1.03516 2.759874,1.66702 4.461044,1.66702 1.777562,0 3.391876,-0.69606 4.612324,-1.81678 1.222564,1.12232 2.844592,1.81528 4.62443,1.81528 3.772914,0 6.860242,-3.08884 6.860242,-6.86176 0,-3.772919 -3.087328,-6.860239 -6.860242,-6.860239 z m -65.135249,0.0015 c -3.772916,0 -6.860242,3.08886 -6.860242,6.861759 0,3.77292 3.087326,6.86024 6.860242,6.86024 1.764272,0 3.3689,-0.68522 4.586606,-1.79106 1.220024,1.1083 2.832612,1.79106 4.60022,1.79106 2.275076,0 4.29578,-1.12688 5.545678,-2.84544 1.25035,1.71842 3.270716,2.84544 5.545678,2.84544 1.886458,0 3.601836,-0.7715 4.845282,-2.01494 l -0.0106,-0.01 0.0046,0 0,-4.4308 -2.744096,0 0,3.14346 c -0.612506,0.35996 -1.326672,0.56878 -2.095136,0.56878 -2.289754,0 -4.117658,-1.82638 -4.117658,-4.11614 0,-2.28976 1.827904,-4.117659 4.117658,-4.117659 1.144878,0 2.173732,0.4564 2.91655,1.199599 l 1.928734,-1.927219 c -1.24348,-1.24386 -2.958858,-2.01652 -4.845316,-2.01652 -2.275114,0 -4.295348,1.12792 -5.545678,2.84698 -1.249878,-1.71922 -3.27045,-2.84698 -5.545678,-2.84698 -3.772916,0 -6.861756,3.08886 -6.861756,6.861759 0,1.02064 0.23239,1.98784 0.636862,2.86058 -0.746324,0.7731 -1.790874,1.25556 -2.961932,1.25556 -2.289754,0 -4.116146,-1.82638 -4.116146,-4.11614 0,-2.28976 1.826392,-4.117659 4.116146,-4.117659 0.68426,0 1.325792,0.1654 1.890916,0.45534 0.417948,-0.82616 0.967366,-1.57408 1.6277,-2.21162 -1.0316,-0.62212 -2.233032,-0.98782 -3.518616,-0.98782 z m 65.135249,2.7426 c 2.28975,0 4.116144,1.826379 4.116144,4.116139 0,2.28976 -1.826394,4.11766 -4.116144,4.11766 -2.289758,0 -4.11615,-1.8279 -4.11615,-4.11766 0,-2.28976 1.826392,-4.116139 4.11615,-4.116139 z m -55.948423,0.0015 c 2.289754,0 4.116146,1.827899 4.116146,4.117659 0,2.28976 -1.826392,4.11614 -4.116146,4.11614 -2.289754,0 -4.116146,-1.82638 -4.116146,-4.11614 0,-2.28976 1.826392,-4.117659 4.116146,-4.117659 z"
     style="fill:#ffffff;"
     id="cogneco-v2w" />
</svg>
