<?xml version="1.0" encoding="UTF-8" standalone="no"?>
<svg
   xmlns:dc="http://purl.org/dc/elements/1.1/"
   xmlns:cc="http://creativecommons.org/ns#"
   xmlns:rdf="http://www.w3.org/1999/02/22-rdf-syntax-ns#"
   xmlns:svg="http://www.w3.org/2000/svg"
   xmlns="http://www.w3.org/2000/svg"
   version="1.1"
   width="192mm"
   height="60mm"
   id="cogneco_horizontal_logotype_document">
  <metadata
     id="metadata8">
    <rdf:RDF>
      <cc:Work
         rdf:about="">
        <dc:format>image/svg+xml</dc:format>
        <dc:type
           rdf:resource="http://purl.org/dc/dcmitype/StillImage" />
        <dc:title></dc:title>
      </cc:Work>
    </rdf:RDF>
  </metadata>
  <defs
     id="defs6" />
  <path
     d="m 375.15619,66.577488 0,75.165292 14.17189,0 0,-41.789755 48.39845,46.703875 0,-75.774663 -14.17188,0 0,42.406923 -48.39846,-46.711672 z m 198.85946,4.289149 c -19.48524,0 -35.42973,15.944737 -35.42973,35.430253 0,5.1972 1.16208,10.12728 3.19532,14.58615 -3.86484,4.10587 -9.32412,6.68763 -15.46876,6.68763 -11.82537,0 -21.25781,-9.43255 -21.25781,-21.25818 0,-11.825593 9.4324,-21.265945 21.25781,-21.265945 3.61528,0 7.00196,0.890095 9.96876,2.45316 2.1436,-4.264869 4.97384,-8.124731 8.3672,-11.422064 -5.36268,-3.274573 -11.6278,-5.203204 -18.33596,-5.203204 -19.48521,0 -35.42969,15.952537 -35.42969,35.438053 0,5.64693 1.37372,10.97653 3.75,15.72681 -3.76844,3.43902 -8.79248,5.53137 -14.35157,5.53137 -9.3314,0 -17.15444,-5.88409 -20.04688,-14.17211 l 24.49221,0 c -0.39521,-2.3092 -0.64845,-4.66875 -0.64845,-7.08607 0,-2.41816 0.2528,-4.77588 0.64845,-7.086036 l -24.49221,0 c 2.89244,-8.290054 10.71548,-14.179909 20.04688,-14.179909 3.07664,0 5.98849,0.643131 8.61721,1.796909 2.24312,-4.278109 5.21148,-8.10809 8.71876,-11.375183 -5.1356,-2.908047 -11.04464,-4.593834 -17.33597,-4.593834 -19.4852,0 -35.42969,15.952537 -35.42969,35.438053 0,19.48555 15.94449,35.43029 35.42969,35.43029 8.77841,0 16.80077,-3.26413 22.99221,-8.60954 6.209,5.34617 14.25336,8.60954 23.03905,8.60954 9.1802,0 17.51732,-3.59494 23.82032,-9.38299 6.31393,5.79629 14.69089,9.37515 23.88285,9.37515 19.48521,0 35.42969,-15.95254 35.42969,-35.43805 0,-19.485516 -15.94448,-35.430253 -35.42969,-35.430253 z m -336.39074,0.008 c -19.4852,0 -35.42969,15.952537 -35.42969,35.438053 0,19.48551 15.94449,35.43025 35.42969,35.43025 9.11156,0 17.39869,-3.5389 23.68749,-9.25015 6.30084,5.72397 14.62904,9.25015 23.75785,9.25015 11.7496,0 22.18552,-5.81986 28.6406,-14.69556 6.45745,8.87498 16.89161,14.69556 28.64065,14.69556 9.74261,0 18.60169,-3.98455 25.02345,-10.40641 l -0.0548,-0.0548 0.024,0 0,-22.88317 -14.17188,0 0,16.23462 c -3.16329,1.85903 -6.85161,2.93757 -10.82033,2.93757 -11.82544,0 -21.26564,-9.43255 -21.26564,-21.25818 0,-11.825593 9.4402,-21.265945 21.26564,-21.265945 5.91272,0 11.22625,2.357118 15.06253,6.19538 l 9.96092,-9.95328 c -6.42176,-6.423823 -15.28084,-10.414208 -25.02345,-10.414208 -11.7498,0 -22.18328,5.825134 -28.64065,14.703357 -6.45496,-8.878983 -16.8902,-14.703357 -28.6406,-14.703357 -19.48521,0 -35.43754,15.952537 -35.43754,35.438053 0,5.27116 1.2002,10.26632 3.28909,14.77368 -3.85441,3.99274 -9.24897,6.4845 -15.29689,6.4845 -11.82544,0 -21.25781,-9.43255 -21.25781,-21.25818 0,-11.825593 9.43237,-21.265945 21.25781,-21.265945 3.53384,0 6.84704,0.853774 9.76564,2.351598 2.15848,-4.266828 4.99593,-8.129451 8.40625,-11.422064 -5.32789,-3.213171 -11.53265,-5.101842 -18.17205,-5.101842 z m 336.39074,14.164268 c 11.82541,0 21.25781,9.432552 21.25781,21.258145 0,11.82563 -9.4324,21.26598 -21.25781,21.26598 -11.82544,0 -21.25784,-9.44035 -21.25784,-21.26598 0,-11.825593 9.4324,-21.258145 21.25784,-21.258145 z m -288.9454,0.008 c 11.8254,0 21.2578,9.440352 21.2578,21.265985 0,11.82559 -9.4324,21.25814 -21.2578,21.25814 -11.82545,0 -21.25785,-9.43255 -21.25785,-21.25814 0,-11.825633 9.4324,-21.265985 21.25785,-21.265985 z M 106.29675,35.436347 c -39.05437,0 -70.86722,31.813352 -70.86722,70.868343 0,39.05499 31.81285,70.86834 70.86722,70.86834 39.05437,0 70.86718,-31.81335 70.86718,-70.86834 0,-39.054991 -31.81281,-70.868343 -70.86718,-70.868343 z m -11.414082,15.312766 11.117202,59.235317 -8.601561,1.61722 5.148441,27.36764 -17.882845,3.35162 3.304721,17.61744 c -22.340487,-7.59864 -38.359411,-28.66614 -38.359411,-53.63366 0,-27.484365 19.380925,-50.298412 45.273453,-55.555577 z m 32.476572,2.921927 c 20.904,8.338215 35.63285,28.695742 35.63285,52.63365 0,26.60819 -18.19725,48.77774 -42.85161,54.9384 l -3.55469,-18.92218 17.88285,-3.37506 -5.125,-27.3442 8.60156,-1.61722 -10.58596,-56.31339 z m -32.296892,33.227095 -12.867164,2.867206 12.531244,6.117299 0.336,-8.984505 z m 31.023452,0.57813 -0.2736,7.179795 -10.03125,-4.890719 10.30469,-2.289076 z"
     style="color:#000000;font-style:normal;font-variant:normal;font-weight:normal;font-stretch:normal;font-size:medium;line-height:normal;font-family:sans-serif;text-indent:0;text-align:start;text-decoration:none;text-decoration-line:none;text-decoration-style:solid;text-decoration-color:#000000;letter-spacing:normal;word-spacing:normal;text-transform:none;direction:ltr;block-progression:tb;writing-mode:lr-tb;baseline-shift:baseline;text-anchor:start;white-space:normal;clip-rule:nonzero;display:inline;overflow:visible;visibility:visible;opacity:1;isolation:auto;mix-blend-mode:normal;color-interpolation:sRGB;color-interpolation-filters:linearRGB;solid-color:#000000;solid-opacity:1;fill:#000000;fill-opacity:1;fill-rule:nonzero;stroke:none;stroke-width:3.54330707;stroke-linecap:round;stroke-linejoin:miter;stroke-miterlimit:4;stroke-dasharray:none;stroke-dashoffset:0;stroke-opacity:1;color-rendering:auto;image-rendering:auto;shape-rendering:auto;text-rendering:auto;enable-background:accumulate"
     id="path6267" />
</svg>
