<?xml version="1.0" encoding="UTF-8" standalone="no"?>
<svg
   xmlns:svg="http://www.w3.org/2000/svg"
   xmlns="http://www.w3.org/2000/svg"
   id="cogneco-v4b-document"
   height="70mm"
   width="60mm"
   version="1.1">
  <g
     id="g6233"
     transform="matrix(3.9999493,0,0,3.9999067,-499.51339,-1648.9989)">
    <path
       id="path6237"
       style="color:#000000;"
       d="m 148.48671,460.1317 0,7.277 1.37204,0 0,-4.0458 4.68569,4.52156 0,-7.336 -1.37205,0 0,4.10556 -4.68568,-4.52232 z m 19.25255,0.41525 c -1.88646,0 -3.43013,1.54366 -3.43013,3.43012 0,0.50316 0.11251,0.98046 0.30936,1.41214 -0.37418,0.3975 -0.90272,0.64745 -1.49761,0.64745 -1.14487,0 -2.05807,-0.9132 -2.05807,-2.05808 0,-1.14487 0.91319,-2.05882 2.05807,-2.05882 0.35001,0 0.67789,0.0862 0.96512,0.2375 0.20754,-0.4129 0.48155,-0.78659 0.81007,-1.10581 -0.51918,-0.31703 -1.12574,-0.50374 -1.77519,-0.50374 -1.88646,0 -3.43012,1.54442 -3.43012,3.43087 0,0.5467 0.133,1.06268 0.36305,1.52257 -0.36484,0.33294 -0.85124,0.53551 -1.38944,0.53551 -0.90342,0 -1.66081,-0.56966 -1.94084,-1.37205 l 2.37121,0 c -0.0383,-0.22356 -0.0628,-0.452 -0.0628,-0.68603 0,-0.23411 0.0245,-0.46236 0.0628,-0.68602 l -2.37121,0 c 0.28003,-0.80259 1.03742,-1.3728 1.94084,-1.3728 0.29786,0 0.57977,0.0623 0.83427,0.17396 0.21717,-0.41418 0.50455,-0.78497 0.84411,-1.10127 -0.4972,-0.28154 -1.06929,-0.44474 -1.67838,-0.44474 -1.88646,0 -3.43012,1.54442 -3.43012,3.43087 0,1.88646 1.54366,3.43012 3.43012,3.43012 0.84988,0 1.62656,-0.316 2.22599,-0.83351 0.60112,0.51758 1.37993,0.83351 2.23052,0.83351 0.88878,0 1.69594,-0.34803 2.30616,-0.90839 0.61128,0.56116 1.4223,0.90764 2.31222,0.90764 1.88645,0 3.43012,-1.54442 3.43012,-3.43088 0,-1.88646 -1.54367,-3.43012 -3.43012,-3.43012 z m -32.56763,7.7e-4 c -1.88646,0 -3.43012,1.54443 -3.43012,3.43088 0,1.88646 1.54366,3.43012 3.43012,3.43012 0.88214,0 1.68445,-0.34261 2.29331,-0.89553 0.61001,0.55415 1.4163,0.89553 2.30011,0.89553 1.13753,0 2.14789,-0.56344 2.77283,-1.42272 0.62518,0.85921 1.63536,1.42272 2.77284,1.42272 0.94323,0 1.80092,-0.38575 2.42264,-1.00747 l -0.005,-0.005 0.002,0 0,-2.2154 -1.37204,0 0,1.57173 c -0.30626,0.17998 -0.66334,0.28439 -1.04757,0.28439 -1.14488,0 -2.05883,-0.91319 -2.05883,-2.05807 0,-1.14488 0.91395,-2.05883 2.05883,-2.05883 0.57244,0 1.08686,0.2282 1.45827,0.5998 l 0.96437,-0.96361 c -0.62174,-0.62193 -1.47943,-1.00826 -2.42266,-1.00826 -1.13755,0 -2.14767,0.56396 -2.77284,1.42349 -0.62494,-0.85961 -1.63522,-1.42349 -2.77284,-1.42349 -1.88645,0 -3.43087,1.54443 -3.43087,3.43088 0,0.51032 0.11619,0.99392 0.31843,1.43029 -0.37316,0.38655 -0.89544,0.62778 -1.48097,0.62778 -1.14488,0 -2.05807,-0.91319 -2.05807,-2.05807 0,-1.14488 0.91319,-2.05883 2.05807,-2.05883 0.34213,0 0.6629,0.0827 0.94546,0.22767 0.20897,-0.41308 0.48368,-0.78704 0.81385,-1.10581 -0.5158,-0.31106 -1.11652,-0.49391 -1.75931,-0.49391 z m 32.56763,1.3713 c 1.14487,0 2.05807,0.91319 2.05807,2.05807 0,1.14488 -0.9132,2.05883 -2.05807,2.05883 -1.14488,0 -2.05808,-0.91395 -2.05808,-2.05883 0,-1.14488 0.9132,-2.05807 2.05808,-2.05807 z m -27.97421,7.7e-4 c 1.14487,0 2.05807,0.91395 2.05807,2.05883 0,1.14488 -0.9132,2.05807 -2.05807,2.05807 -1.14488,0 -2.05808,-0.91319 -2.05808,-2.05807 0,-1.14488 0.9132,-2.05883 2.05808,-2.05883 z m 11.68978,-40.80085 c -9.76359,0 -17.71679,7.95321 -17.71679,17.7168 0,9.76359 7.9532,17.7168 17.71679,17.7168 9.76359,0 17.7168,-7.95321 17.7168,-17.7168 0,-9.76359 -7.95321,-17.7168 -17.7168,-17.7168 z m -2.85351,3.82813 2.77929,14.80859 -2.15039,0.4043 1.28711,6.8418 -4.4707,0.83789 0.82617,4.40429 c -5.58512,-1.89963 -9.58984,-7.16642 -9.58984,-13.4082 0,-6.87098 4.84523,-12.5744 11.31836,-13.88867 z m 8.11914,0.73047 c 5.22599,2.08452 8.9082,7.17382 8.9082,13.1582 0,6.65194 -4.5493,12.19424 -10.71289,13.73438 l -0.88867,-4.73047 4.4707,-0.84375 -1.28125,-6.83594 2.15039,-0.4043 -2.64648,-14.07812 z m -8.07422,8.30664 -3.2168,0.71679 3.13281,1.5293 0.084,-2.24609 z m 7.75586,0.14453 -0.0684,1.79492 -2.50782,-1.22266 2.57618,-0.57226 z" />
  </g>
</svg>
