<?xml version="1.0" encoding="UTF-8" standalone="no"?>
<svg
   xmlns:svg="http://www.w3.org/2000/svg"
   xmlns="http://www.w3.org/2000/svg"
   id="cogneco-v4b-document"
   height="70mm"
   width="60mm"
   version="1.1">
  <path
     d="m 94.425922,191.48497 0,29.10732 5.48809,0 0,-16.18282 18.742518,18.08582 0,-29.34332 -5.48813,0 0,16.42186 -18.742478,-18.08886 z m 77.009228,1.66096 c -7.54575,0 -13.72035,6.1745 -13.72035,13.72016 0,2.01259 0.45003,3.92175 1.23742,5.64843 -1.4967,1.58996 -3.61083,2.58974 -5.99036,2.58974 -4.57942,0 -8.23218,-3.65272 -8.23218,-8.23213 0,-4.57937 3.65272,-8.23509 8.23218,-8.23509 1.40002,0 2.71153,0.34479 3.86043,0.94998 0.83015,-1.65156 1.92618,-3.14629 3.24024,-4.42314 -2.07669,-1.26809 -4.5029,-2.01491 -7.10067,-2.01491 -7.54574,0 -13.72031,6.17754 -13.72031,13.72316 0,2.18675 0.532,4.25062 1.45219,6.09014 -1.45935,1.33173 -3.40492,2.14199 -5.55769,2.14199 -3.61364,0 -6.64316,-2.27859 -7.76327,-5.48807 l 9.48472,0 c -0.15319,-0.89422 -0.25119,-1.80796 -0.25119,-2.74406 0,-0.93642 0.098,-1.8494 0.25119,-2.74402 l -9.48472,0 c 1.12011,-3.21028 4.14963,-5.49107 7.76327,-5.49107 1.19142,0 2.31905,0.2492 3.33703,0.69583 0.86867,-1.65668 2.01818,-3.13981 3.3764,-4.40498 -1.98877,-1.12613 -4.27711,-1.77892 -6.71343,-1.77892 -7.54575,0 -13.72031,6.17754 -13.72031,13.72316 0,7.54566 6.17456,13.72016 13.72031,13.72016 3.39947,0 6.50615,-1.26397 8.90384,-3.33396 2.40445,2.07027 5.51965,3.33396 8.92197,3.33396 3.55507,0 6.78367,-1.39209 9.22452,-3.63347 2.44509,2.24458 5.68913,3.63047 9.24877,3.63047 7.5457,0 13.7203,-6.17754 13.7203,-13.7232 0,-7.54566 -6.1746,-13.72016 -13.7203,-13.72016 z m -130.268873,0.003 c -7.545745,0 -13.720306,6.17758 -13.720306,13.7232 0,7.54566 6.174561,13.72016 13.720306,13.72016 3.528515,0 6.737714,-1.37041 9.173124,-3.58204 2.440009,2.21655 5.665128,3.58204 9.200323,3.58204 4.550062,0 8.591451,-2.25371 11.091179,-5.69075 2.500689,3.43676 6.541357,5.69075 11.09122,5.69075 3.772872,0 7.203588,-1.54296 9.690437,-4.02979 l -0.02,-0.02 0.008,0 0,-8.8614 -5.48809,0 0,6.28678 c -1.225025,0.7199 -2.653327,1.13753 -4.190227,1.13753 -4.579462,0 -8.235216,-3.65268 -8.235216,-8.23209 0,-4.57941 3.655754,-8.23513 8.235216,-8.23513 2.289731,0 4.347385,0.91278 5.833006,2.39915 l 3.857431,-3.85435 c -2.486929,-2.48767 -5.917645,-4.03295 -9.690517,-4.03295 -4.550143,0 -8.590571,2.25579 -11.09122,5.69383 -2.499728,-3.43836 -6.540797,-5.69383 -11.091219,-5.69383 -7.545704,0 -13.723306,6.17758 -13.723306,13.7232 0,2.04123 0.464754,3.97559 1.273704,5.72103 -1.492621,1.54616 -3.581715,2.51106 -5.923805,2.51106 -4.579462,0 -8.232176,-3.65268 -8.232176,-8.23209 0,-4.57941 3.652714,-8.23513 8.232176,-8.23513 1.368502,0 2.651566,0.3308 3.781792,0.91066 0.835869,-1.65228 1.934695,-3.14808 3.255359,-4.42314 -2.063174,-1.24421 -4.466024,-1.97559 -7.037151,-1.97559 z m 130.268873,5.48507 c 4.57942,0 8.23217,3.65268 8.23217,8.23209 0,4.57941 -3.65275,8.23513 -8.23217,8.23513 -4.57947,0 -8.23222,-3.65572 -8.23222,-8.23513 0,-4.57941 3.65275,-8.23209 8.23222,-8.23209 z m -111.895426,0.003 c 4.579422,0 8.232176,3.65572 8.232176,8.23513 0,4.57941 -3.652754,8.23209 -8.232176,8.23209 -4.579462,0 -8.232216,-3.65268 -8.232216,-8.23209 0,-4.57941 3.652754,-8.23513 8.232216,-8.23513 z M 106.29825,35.43757 c -39.053864,0 -70.866261,31.812098 -70.866261,70.86555 0,39.05345 31.812397,70.86554 70.866261,70.86554 39.05387,0 70.8663,-31.81209 70.8663,-70.86554 0,-39.053452 -31.81243,-70.86555 -70.8663,-70.86555 z m -11.413894,15.312162 11.117024,59.232978 -8.601456,1.61716 5.148376,27.36656 -17.882575,3.35149 3.304639,17.61675 C 65.630167,152.33632 49.61149,131.26965 49.61149,106.30312 c 0,-27.483282 19.380674,-50.29643 45.272866,-55.553388 z m 32.476144,2.921812 c 20.9037,8.337886 35.63235,28.694611 35.63235,52.631576 0,26.60714 -18.19697,48.77582 -42.85101,54.93624 l -3.55464,-18.92144 17.88257,-3.37492 -5.12493,-27.34313 8.60145,-1.61716 -10.58579,-56.311166 z m -32.296466,33.225785 -12.867037,2.867093 12.531081,6.117058 0.335996,-8.984151 z m 31.023046,0.578107 -0.2736,7.179512 -10.03115,-4.890526 10.30459,-2.288986 z"
     style="color:#000000"
     id="cogneco-v4b" />
</svg>
