<?xml version="1.0" encoding="UTF-8" standalone="no"?>
<svg
   xmlns:svg="http://www.w3.org/2000/svg"
   xmlns="http://www.w3.org/2000/svg"
   version="1.1"
   width="288mm"
   height="90mm"
   id="cogneco-h6b-document">
  <path
     d="m 562.73429,99.866282 0,112.747938 21.25782,0 0,-62.68463 72.59769,70.05581 0,-113.66199 -21.25783,0 0,63.61038 -72.59768,-70.067508 z m 298.28919,6.433728 c -29.22787,0 -53.1446,23.9171 -53.1446,53.14537 0,7.79581 1.74312,15.19093 4.79298,21.87923 -5.79726,6.1588 -13.98618,10.03145 -23.20314,10.03145 -17.73805,0 -31.88671,-14.14883 -31.88671,-31.88728 0,-17.73838 14.1486,-31.89891 31.88671,-31.89891 5.42292,0 10.50294,1.33514 14.95314,3.67974 3.2154,-6.39731 7.46076,-12.1871 12.5508,-17.1331 -8.04402,-4.91186 -17.4417,-7.8048 -27.50394,-7.8048 -29.22781,0 -53.14454,23.9288 -53.14454,53.15707 0,8.4704 2.06058,16.46481 5.625,23.59022 -5.65266,5.15852 -13.18872,8.29706 -21.52734,8.29706 -13.99711,0 -25.73167,-8.82615 -30.07033,-21.25817 l 36.73831,0 c -0.5928,-3.46379 -0.97266,-7.00313 -0.97266,-10.62911 0,-3.62724 0.3792,-7.16381 0.97266,-10.62905 l -36.73831,0 c 4.33866,-12.43508 16.07322,-21.26986 30.07033,-21.26986 4.61496,0 8.98272,0.96469 12.9258,2.69536 3.36468,-6.41716 7.81722,-12.16213 13.07814,-17.06277 -7.7034,-4.36207 -16.56696,-6.89075 -26.00394,-6.89075 -29.22781,0 -53.14454,23.9288 -53.14454,53.15707 0,29.22833 23.91673,53.14544 53.14454,53.14544 13.1676,0 25.20114,-4.8962 34.48831,-12.91431 9.3135,8.01925 21.38004,12.91431 34.55857,12.91431 13.7703,0 26.27598,-5.39241 35.73049,-14.07449 9.47088,8.69444 22.03632,14.06273 35.82427,14.06273 29.22781,0 53.14453,-23.92881 53.14453,-53.15708 0,-29.22827 -23.91672,-53.14537 -53.14453,-53.14537 z m -504.58611,0.012 c -29.22781,0 -53.14454,23.9288 -53.14454,53.15707 0,29.22827 23.91673,53.14538 53.14454,53.14538 13.66734,0 26.09802,-5.30835 35.53123,-13.87523 9.45126,8.58596 21.94356,13.87523 35.63677,13.87523 17.6244,0 33.27829,-8.72978 42.96091,-22.04334 9.68616,13.31248 25.33741,22.04334 42.96097,22.04334 14.61391,0 27.90253,-5.97682 37.53517,-15.60961 l -0.0822,-0.0822 0.036,0 0,-34.32475 -21.25782,0 0,24.35193 c -4.74492,2.78855 -10.2774,4.40636 -16.23049,4.40636 -17.73816,0 -31.89847,-14.14883 -31.89847,-31.88728 0,-17.73838 14.16031,-31.89891 31.89847,-31.89891 8.86909,0 16.83937,3.53568 22.59379,9.29307 l 14.94138,-14.92992 c -9.63264,-9.63574 -22.92126,-15.62131 -37.53517,-15.62131 -17.6247,0 -33.27493,8.7377 -42.96097,22.05503 -9.68244,-13.31847 -25.33531,-22.05503 -42.96091,-22.05503 -29.22781,0 -53.1563,23.9288 -53.1563,53.15707 0,7.90675 1.8003,15.39949 4.93362,22.16052 -5.7816,5.98911 -13.87344,9.72676 -22.94532,9.72676 -17.73817,0 -31.88671,-14.14883 -31.88671,-31.88728 0,-17.73838 14.14854,-31.89891 31.88671,-31.89891 5.30076,0 10.27056,1.28066 14.64846,3.52739 3.23772,-6.40024 7.49388,-12.19417 12.60936,-17.13309 -7.99182,-4.81976 -17.29896,-7.65276 -27.25806,-7.65276 z m 504.58611,21.2464 c 17.7381,0 31.88671,14.14883 31.88671,31.88721 0,17.73845 -14.14861,31.89897 -31.88671,31.89897 -17.73817,0 -31.88677,-14.16052 -31.88677,-31.89897 0,-17.73838 14.1486,-31.88721 31.88677,-31.88721 z m -433.41811,0.012 c 17.7381,0 31.88671,14.16053 31.88671,31.89897 0,17.73839 -14.14861,31.88722 -31.88671,31.88722 -17.73817,0 -31.88677,-14.14883 -31.88677,-31.88722 0,-17.73844 14.1486,-31.89897 31.88677,-31.89897 z M 159.44513,53.15457 c -58.58156,0 -106.300835,47.72003 -106.300835,106.30251 0,58.58248 47.719275,106.30251 106.300835,106.30251 58.58155,0 106.30077,-47.72003 106.30077,-106.30251 0,-58.58248 -47.71922,-106.30251 -106.30077,-106.30251 z m -17.12113,22.96915 16.67581,88.85297 -12.90235,2.42584 7.72267,41.05146 -26.82427,5.02742 4.95708,26.42617 c -33.510731,-11.39797 -57.539118,-42.99922 -57.539118,-80.4505 0,-41.22654 29.071388,-75.447613 67.910178,-83.33336 z m 48.71486,4.38289 c 31.35601,12.507322 53.44927,43.04361 53.44927,78.95047 0,39.91228 -27.29587,73.16662 -64.27742,82.40761 l -5.33202,-28.38328 26.82427,-5.06258 -7.6875,-41.0163 12.90234,-2.42584 -15.87894,-84.47008 z m -48.44534,49.84064 -19.30074,4.30081 18.79686,9.17595 0.504,-13.47676 z m 46.53518,0.8672 -0.4104,10.76969 -15.04687,-7.33608 15.45703,-3.43361 z"
     style="color:#000000;"
     id="cogneco-h6b" />
</svg>
