<?xml version="1.0" encoding="UTF-8" standalone="no"?>
<svg
   xmlns:svg="http://www.w3.org/2000/svg"
   xmlns="http://www.w3.org/2000/svg"
   id="cogneco-v5b-document"
   height="87.5mm"
   width="75mm"
   version="1.1">
  <path
     d="m 118.03241,239.35633 0,36.38419 6.86011,0 0,-20.22855 23.42815,22.60729 0,-36.67918 -6.86016,0 0,20.52734 -23.4281,-22.61109 z m 96.26153,2.0762 c -9.43219,0 -17.15044,7.71813 -17.15044,17.15022 0,2.51574 0.56255,4.90219 1.54678,7.06054 -1.87087,1.98746 -4.51354,3.23718 -7.48795,3.23718 -5.72428,0 -10.29022,-4.5659 -10.29022,-10.29017 0,-5.72422 4.56589,-10.29387 10.29022,-10.29387 1.75003,0 3.38941,0.43099 4.82554,1.18747 1.03768,-2.06445 2.40772,-3.93286 4.0503,-5.52893 -2.59587,-1.58511 -5.62863,-2.51864 -8.87584,-2.51864 -9.43218,0 -17.15038,7.72193 -17.15038,17.15397 0,2.73344 0.66499,5.31328 1.81522,7.61268 -1.82417,1.66466 -4.25614,2.67749 -6.94711,2.67749 -4.51704,0 -8.30394,-2.84824 -9.70408,-6.8601 l 11.8559,0 c -0.19149,-1.11777 -0.31399,-2.25995 -0.31399,-3.43007 0,-1.17053 0.1225,-2.31175 0.31399,-3.43003 l -11.8559,0 c 1.40014,-4.01286 5.18704,-6.86384 9.70408,-6.86384 1.48928,0 2.89881,0.31149 4.1713,0.86978 1.08583,-2.07086 2.52272,-3.92477 4.22049,-5.50623 -2.48596,-1.40767 -5.34638,-2.22365 -8.39179,-2.22365 -9.43218,0 -17.15038,7.72193 -17.15038,17.15397 0,9.43209 7.7182,17.15022 17.15038,17.15022 4.24935,0 8.1327,-1.57997 11.12981,-4.16746 3.00556,2.58784 6.89956,4.16746 11.15246,4.16746 4.44384,0 8.47959,-1.74011 11.53065,-4.54185 3.05636,2.80574 7.11141,4.5381 11.56096,4.5381 9.43213,0 17.15038,-7.72193 17.15038,-17.15402 0,-9.43209 -7.71825,-17.15022 -17.15038,-17.15022 z m -162.83609,0.004 c -9.43218,0 -17.150382,7.72198 -17.150382,17.15402 0,9.43209 7.718202,17.15022 17.150382,17.15022 4.410644,0 8.422143,-1.71301 11.466405,-4.47755 3.050011,2.77069 7.08141,4.47755 11.500404,4.47755 5.687578,0 10.739314,-2.81714 13.863974,-7.11344 3.12586,4.29595 8.176696,7.11344 13.864027,7.11344 4.71609,0 9.00448,-1.92871 12.11304,-5.03724 l -0.025,-0.025 0.01,0 0,-11.07675 -6.86011,0 0,7.85847 c -1.53128,0.89988 -3.31666,1.42192 -5.23778,1.42192 -5.72433,0 -10.294022,-4.56585 -10.294022,-10.29012 0,-5.72427 4.569692,-10.29392 10.294022,-10.29392 2.86216,0 5.43423,1.14097 7.29125,2.99893 l 4.82179,-4.81794 c -3.10866,-3.10958 -7.39705,-5.04119 -12.11314,-5.04119 -5.687681,0 -10.738217,2.81974 -13.864027,7.11729 -3.12466,-4.29795 -8.175996,-7.11729 -13.864024,-7.11729 -9.432131,0 -17.154133,7.72198 -17.154133,17.15402 0,2.55154 0.580943,4.96949 1.59213,7.15129 -1.865776,1.93271 -4.477143,3.13883 -7.404756,3.13883 -5.724327,0 -10.290219,-4.56585 -10.290219,-10.29012 0,-5.72427 4.565892,-10.29392 10.290219,-10.29392 1.710628,0 3.314458,0.41349 4.72724,1.13832 1.044837,-2.06535 2.41837,-3.93511 4.069199,-5.52893 -2.578968,-1.55526 -5.58253,-2.46949 -8.796439,-2.46949 z m 162.83609,6.85635 c 5.72427,0 10.29021,4.56585 10.29021,10.29012 0,5.72427 -4.56594,10.29392 -10.29021,10.29392 -5.72433,0 -10.29027,-4.56965 -10.29027,-10.29392 0,-5.72427 4.56594,-10.29012 10.29027,-10.29012 z m -139.869281,0.004 c 5.724277,0 10.290219,4.56965 10.290219,10.29392 0,5.72427 -4.565942,10.29012 -10.290219,10.29012 -5.724328,0 -10.29027,-4.56585 -10.29027,-10.29012 0,-5.72427 4.565942,-10.29392 10.29027,-10.29392 z M 132.87282,44.296856 c -48.817333,0 -88.582829,39.765167 -88.582829,88.582034 0,48.81687 39.765496,88.58203 88.582829,88.58203 48.81733,0 88.58287,-39.76516 88.58287,-88.58203 0,-48.816867 -39.76554,-88.582034 -88.58287,-88.582034 z m -14.26737,19.140225 13.89627,74.041309 -10.75181,2.02145 6.43547,34.20824 -22.35322,4.18936 4.1308,22.02096 c -27.925248,-9.49794 -47.948594,-35.8313 -47.948594,-67.03951 0,-34.354138 24.225843,-62.870605 56.591084,-69.441809 z m 40.59518,3.652269 c 26.12962,10.422368 44.54044,35.8683 44.54044,65.78954 0,33.25896 -22.74621,60.96985 -53.56377,68.67037 l -4.4433,-23.65182 22.35322,-4.21866 -6.40617,-34.17894 10.75182,-2.02145 -13.23224,-70.38904 z m -40.37058,41.53228 -16.0838,3.58387 15.66385,7.64633 0.42,-11.2302 z m 38.7788,0.72263 -0.34199,8.9744 -12.53894,-6.11316 12.88073,-2.86124 z"
     style="color:#000000;"
     id="cogneco-v5b" />
</svg>
