<?xml version="1.0" encoding="UTF-8" standalone="no"?>
<svg
   xmlns:svg="http://www.w3.org/2000/svg"
   xmlns="http://www.w3.org/2000/svg"
   version="1.1"
   width="30mm"
   height="30mm"
   id="cogneco-s2b-document">
  <path
     d="m 63.04401,43.735766 -0.136798,3.589756 -5.015576,-2.445263 5.152294,-1.144493 z m -15.511523,-0.289054 -6.433518,1.433547 6.265541,3.058529 0.167997,-4.492076 z M 63.680722,26.833819 c 10.451848,4.168943 17.816174,14.347306 17.816174,26.315787 0,13.30357 -9.098484,24.387912 -21.425508,27.46812 L 58.294071,71.157007 67.235357,69.469546 64.67289,55.797985 68.973615,54.989403 63.680722,26.833819 Z m -16.238073,-1.460906 5.558509,29.61649 -4.300725,0.808582 2.574187,13.683281 -8.941287,1.675741 1.652319,8.808374 C 32.815554,76.16621 24.806216,65.632875 24.806216,53.149606 c 0,-13.74164 9.690337,-25.148214 22.636433,-27.776693 z m 5.706947,-7.656081 c -19.526932,0 -35.43313,15.906049 -35.43313,35.432774 0,19.526725 15.906198,35.432775 35.43313,35.432775 19.526932,0 35.43315,-15.90605 35.43315,-35.432775 0,-19.526725 -15.906218,-35.432774 -35.43315,-35.432774 z"
     style="color:#000000;"
     id="cogneco-s2b" />
</svg>
