<?xml version="1.0" encoding="UTF-8" standalone="no"?>
<svg
   xmlns:svg="http://www.w3.org/2000/svg"
   xmlns="http://www.w3.org/2000/svg"
   id="cogneco-h3b-document"
   height="45mm"
   width="144mm"
   version="1.1">
  <path
     d="m 281.36714,49.933141 0,56.373969 10.62892,0 0,-31.342316 36.29884,35.027906 0,-56.830997 -10.62891,0 0,31.805192 -36.29885,-35.033754 z m 149.1446,3.216862 c -14.61394,0 -26.5723,11.958552 -26.5723,26.572688 0,3.897902 0.87156,7.595462 2.39649,10.939616 -2.89863,3.079399 -6.99309,5.015721 -11.60157,5.015721 -8.86902,0 -15.94336,-7.074414 -15.94336,-15.943637 0,-8.869193 7.07431,-15.949457 15.94336,-15.949457 2.71146,0 5.25147,0.667571 7.47657,1.83987 1.6077,-3.198652 3.73038,-6.093548 6.2754,-8.566548 -4.02201,-2.45593 -8.72085,-3.902403 -13.75197,-3.902403 -14.61391,0 -26.57227,11.964403 -26.57227,26.578538 0,4.235198 1.03029,8.232402 2.8125,11.79511 -2.82633,2.579261 -6.59436,4.148527 -10.76367,4.148527 -6.99855,0 -12.86584,-4.413072 -15.03517,-10.629082 l 18.36916,0 c -0.2964,-1.731897 -0.48633,-3.501566 -0.48633,-5.314555 0,-1.813619 0.1896,-3.581908 0.48633,-5.314526 l -18.36916,0 c 2.16933,-6.21754 8.03662,-10.634931 15.03517,-10.634931 2.30748,0 4.49136,0.482348 6.4629,1.347682 1.68234,-3.208582 3.90861,-6.081068 6.53907,-8.531388 -3.8517,-2.181035 -8.28348,-3.445375 -13.00197,-3.445375 -14.61391,0 -26.57227,11.964403 -26.57227,26.578538 0,14.614165 11.95836,26.572719 26.57227,26.572719 6.5838,0 12.60057,-2.4481 17.24415,-6.457155 4.65675,4.009625 10.69003,6.457155 17.27929,6.457155 6.88515,0 13.13799,-2.6962 17.86524,-7.037245 4.73544,4.347225 11.01817,7.031365 17.91214,7.031365 14.6139,0 26.57227,-11.964404 26.57227,-26.578539 0,-14.614136 -11.95837,-26.572688 -26.57227,-26.572688 z m -252.29306,0.006 c -14.6139,0 -26.57226,11.964403 -26.57226,26.578538 0,14.614135 11.95836,26.572689 26.57226,26.572689 6.83368,0 13.04902,-2.65417 17.76562,-6.937613 4.72563,4.292983 10.97178,6.937613 17.81838,6.937613 8.81221,0 16.63915,-4.36489 21.48046,-11.021669 4.84308,6.656239 12.6687,11.021669 21.48049,11.021669 7.30695,0 13.95126,-2.98841 18.76758,-7.804807 l -0.0411,-0.0411 0.018,0 0,-17.162376 -10.62891,0 0,12.175966 c -2.37246,1.394273 -5.1387,2.203176 -8.11524,2.203176 -8.86909,0 -15.94924,-7.074414 -15.94924,-15.943637 0,-8.869193 7.08015,-15.949457 15.94924,-15.949457 4.43454,0 8.41968,1.767839 11.29689,4.646535 l 7.47069,-7.46496 c -4.81632,-4.817868 -11.46063,-7.810656 -18.76758,-7.810656 -8.81236,0 -16.63747,4.36885 -21.48049,11.027517 -4.84122,-6.659237 -12.66765,-11.027517 -21.48046,-11.027517 -14.6139,0 -26.57814,11.964403 -26.57814,26.578538 0,3.953374 0.90015,7.699744 2.46681,11.080258 -2.8908,2.994558 -6.93673,4.863379 -11.47267,4.863379 -8.86908,0 -15.94335,-7.074414 -15.94335,-15.943637 0,-8.869193 7.07427,-15.949457 15.94335,-15.949457 2.65038,0 5.13528,0.64033 7.32424,1.763698 1.61886,-3.200121 3.74694,-6.097088 6.30468,-8.566547 -3.99591,-2.409879 -8.64949,-3.826382 -13.62904,-3.826382 z m 252.29306,10.623201 c 8.86905,0 15.94335,7.074414 15.94335,15.943607 0,8.869222 -7.0743,15.949486 -15.94335,15.949486 -8.86908,0 -15.94339,-7.080264 -15.94339,-15.949486 0,-8.869193 7.07431,-15.943607 15.94339,-15.943607 z m -216.70906,0.006 c 8.86906,0 15.94336,7.080264 15.94336,15.949487 0,8.869193 -7.0743,15.943607 -15.94336,15.943607 -8.86908,0 -15.94338,-7.074414 -15.94338,-15.943607 0,-8.869223 7.0743,-15.949487 15.94338,-15.949487 z M 79.722564,26.577285 c -29.290779,0 -53.150416,23.860014 -53.150416,53.151256 0,29.291239 23.859637,53.151259 53.150416,53.151259 29.290776,0 53.150386,-23.86002 53.150386,-53.151259 0,-29.291242 -23.85961,-53.151256 -53.150386,-53.151256 z m -8.560563,11.484575 8.337903,44.426485 -6.451172,1.21292 3.861331,20.525735 -13.412134,2.51371 2.478541,13.21308 C 49.221105,114.25481 37.206911,98.454182 37.206911,79.728541 c 0,-20.613272 14.535694,-37.723808 33.95509,-41.666681 z m 24.357427,2.191445 c 15.678002,6.253661 26.724642,21.521807 26.724642,39.475236 0,19.956141 -13.64794,36.583309 -32.138713,41.203799 l -2.666011,-14.19163 13.412134,-2.5313 -3.843751,-20.508145 6.451171,-1.21292 -7.939472,-42.23504 z m -24.222667,24.920321 -9.650373,2.150405 9.398433,4.587974 0.252,-6.738379 z m 23.267587,0.433597 -0.2052,5.384847 -7.523432,-3.668039 7.728512,-1.716808 z"
     style="color:#000000;"
     id="cogneco-h3b" />
</svg>
