<?xml version="1.0" encoding="UTF-8" standalone="no"?>
<svg
   xmlns:dc="http://purl.org/dc/elements/1.1/"
   xmlns:cc="http://creativecommons.org/ns#"
   xmlns:rdf="http://www.w3.org/1999/02/22-rdf-syntax-ns#"
   xmlns:svg="http://www.w3.org/2000/svg"
   xmlns="http://www.w3.org/2000/svg"
   xmlns:sodipodi="http://sodipodi.sourceforge.net/DTD/sodipodi-0.dtd"
   xmlns:inkscape="http://www.inkscape.org/namespaces/inkscape"
   version="1.1"
   width="90mm"
   height="105mm"
   id="cogneco-v6w-document"
   inkscape:version="0.91 r13725"
   sodipodi:docname="cogneco-v6w.svg">
  <metadata
     id="metadata8">
    <rdf:RDF>
      <cc:Work
         rdf:about="">
        <dc:format>image/svg+xml</dc:format>
        <dc:type
           rdf:resource="http://purl.org/dc/dcmitype/StillImage" />
        <dc:title></dc:title>
      </cc:Work>
    </rdf:RDF>
  </metadata>
  <defs
     id="defs6" />
  <sodipodi:namedview
     pagecolor="#000000"
     bordercolor="#666666"
     borderopacity="1"
     objecttolerance="10"
     gridtolerance="10"
     guidetolerance="10"
     inkscape:pageopacity="0"
     inkscape:pageshadow="2"
     inkscape:window-width="1280"
     inkscape:window-height="1388"
     id="namedview4"
     showgrid="false"
     inkscape:snap-bbox="true"
     inkscape:object-nodes="true"
     inkscape:zoom="2.3776297"
     inkscape:cx="163.40736"
     inkscape:cy="171.77197"
     inkscape:window-x="2560"
     inkscape:window-y="24"
     inkscape:window-maximized="0"
     inkscape:current-layer="cogneco-v6w-document" />
  <path
     id="path3338"
     style="fill:#ffffff;fill-opacity:1"
     d="m 141.24843,131.24838 -0.41039,10.76926 -15.04672,-7.33578 15.45687,-3.43348 z m 18.19884,-78.09213 c -58.58073,0 -106.298833,47.71865 -106.298832,106.29883 0,58.58017 47.718102,106.29883 106.298832,106.29883 58.58073,0 106.29882,-47.71866 106.29882,-106.29883 0,-58.58018 -47.71809,-106.29883 -106.29882,-106.29883 z m -17.1211,22.96875 16.67578,88.84961 -12.90234,2.42578 7.72266,41.04883 -26.82422,5.02734 4.95703,26.42578 C 98.444819,228.50483 74.417969,196.90488 74.417969,159.45508 c 0,-41.22492 29.069951,-75.444644 67.908201,-83.33008 z m 48.71485,4.382812 c 31.35551,12.506828 53.44726,43.041818 53.44726,78.947268 0,39.91071 -27.29436,73.16366 -64.27539,82.4043 l -5.33203,-28.38282 26.82422,-5.0625 -7.6875,-41.01367 12.90234,-2.42578 z m -0.52735,49.837888 -0.5039,13.47657 -18.79688,-9.17579 z m -48.875,156.88086 0,43.66211 8.23242,0 0,-24.27344 28.11329,27.12696 0,-44.01367 -8.23243,0 0,24.63281 z m 115.51367,2.49219 c -11.3186,0 -20.58007,9.26158 -20.58007,20.58008 0,3.01889 0.67438,5.88263 1.85546,8.47265 -2.24505,2.38495 -5.41508,3.88477 -8.98437,3.88477 -6.86912,0 -12.34961,-5.47854 -12.34961,-12.34766 0,-6.86906 5.48043,-12.35351 12.34961,-12.35351 2.10003,0 4.06571,0.51801 5.78906,1.42578 1.24523,-2.47734 2.89023,-4.7195 4.86133,-6.63477 -3.11504,-1.90214 -6.75374,-3.02343 -10.65039,-3.02343 -11.3186,0 -20.58203,9.26749 -20.58203,20.58593 0,3.28012 0.79941,6.37549 2.17969,9.13477 -2.18901,1.99759 -5.10873,3.21289 -8.3379,3.21289 -5.42044,0 -9.96437,-3.41819 -11.64453,-8.23242 l 14.22852,0 c -0.2298,-1.34133 -0.37695,-2.71109 -0.37695,-4.11524 0,-1.40463 0.14715,-2.77526 0.37695,-4.11718 l -14.22852,0 c 1.68016,-4.81543 6.22409,-8.23633 11.64453,-8.23633 1.78714,0 3.47888,0.37498 5.00586,1.04492 1.30301,-2.48502 3.02713,-4.70967 5.06446,-6.60742 -2.98316,-1.6892 -6.41583,-2.66992 -10.07032,-2.66992 -11.3186,0 -20.58007,9.26749 -20.58007,20.58593 0,11.3185 9.26147,20.58008 20.58007,20.58008 5.09921,0 9.7609,-1.89697 13.35743,-5.00195 3.60667,3.1054 8.27934,5.00195 13.38281,5.00195 5.33261,0 10.17467,-2.08909 13.83594,-5.45117 3.66763,3.36688 8.53359,5.44727 13.87304,5.44727 11.31854,0 20.58008,-9.26744 20.58008,-20.58594 0,-11.3185 -9.26154,-20.58008 -20.58008,-20.58008 z M 61.75,289.72461 c -11.318604,0 -20.580078,9.26554 -20.580078,20.58398 0,11.3185 9.261474,20.58008 20.580078,20.58008 5.292767,0 10.106656,-2.05559 13.759766,-5.37305 3.660009,3.32484 8.497995,5.37305 13.800781,5.37305 6.825086,0 12.887133,-3.37959 16.636723,-8.53515 3.75103,5.15514 9.81192,8.53515 16.63671,8.53515 5.6593,0 10.80489,-2.31469 14.53516,-6.04492 l -0.0293,-0.0293 0.0117,0 0,-13.29297 -8.23242,0 0,9.43164 c -1.83753,1.07986 -3.97981,1.70508 -6.28516,1.70508 -6.86919,0 -12.35351,-5.47853 -12.35351,-12.34765 0,-6.86912 5.48432,-12.35352 12.35351,-12.35352 3.43459,0 6.51962,1.37007 8.74805,3.59961 l 5.78711,-5.78125 c -3.73039,-3.73149 -8.87586,-6.04883 -14.53516,-6.04883 -6.82521,0 -12.88574,3.38201 -16.63671,8.53906 -3.74959,-5.15753 -9.811097,-8.53906 -16.636723,-8.53906 -11.318543,0 -20.585938,9.26555 -20.585938,20.58399 0,3.06185 0.696734,5.96387 1.910157,8.58203 -2.238929,2.31925 -5.371635,3.76562 -8.884766,3.76562 -6.869185,0 -12.349609,-5.47853 -12.349609,-12.34765 0,-6.86912 5.480424,-12.35352 12.349609,-12.35352 2.052751,0 3.976538,0.49739 5.671875,1.36719 1.253802,-2.47843 2.90182,-4.72219 4.882813,-6.63477 C 69.20993,290.82313 65.606687,289.72656 61.75,289.72656 Z m 195.40234,8.22656 c 6.86913,0 12.34766,5.47854 12.34766,12.34766 0,6.86912 -5.47853,12.35351 -12.34766,12.35351 -6.86918,0 -12.34765,-5.48439 -12.34765,-12.35351 0,-6.86912 5.47847,-12.34766 12.34765,-12.34766 z m -167.841793,0.006 c 6.869126,0 12.347653,5.48244 12.347653,12.35156 0,6.86912 -5.478527,12.34961 -12.347653,12.34961 -6.869185,0 -12.349609,-5.48049 -12.349609,-12.34961 0,-6.86912 5.480424,-12.35156 12.349609,-12.35156 z" />
</svg>
