<?xml version="1.0" encoding="UTF-8" standalone="no"?>
<svg
   xmlns:svg="http://www.w3.org/2000/svg"
   xmlns="http://www.w3.org/2000/svg"
   id="cogneco-v1b-document"
   height="17.5mm"
   width="15mm"
   version="1.1">
  <path
     d="m 23.606477,47.871258 0,7.276831 1.372023,0 0,-4.045706 4.68563,4.521455 0,-7.33583 -1.372032,0 0,4.105465 -4.685621,-4.522215 z m 19.252306,0.41524 c -1.886436,0 -3.430086,1.543625 -3.430086,3.430041 0,0.503148 0.112508,0.980437 0.309356,1.412107 -0.374176,0.39749 -0.902709,0.647435 -1.497591,0.647435 -1.144856,0 -2.058044,-0.913179 -2.058044,-2.058032 0,-1.144844 0.913178,-2.058772 2.058044,-2.058772 0.350005,0 0.677881,0.0862 0.965107,0.237494 0.207538,-0.41289 0.481544,-0.786572 0.81006,-1.105784 -0.519173,-0.317023 -1.125726,-0.503729 -1.775167,-0.503729 -1.886436,0 -3.430077,1.544384 -3.430077,3.430791 0,0.546687 0.132998,1.062655 0.363046,1.522534 -0.364836,0.332932 -0.85123,0.535498 -1.389423,0.535498 -0.903408,0 -1.660789,-0.569647 -1.940815,-1.372018 l 2.37118,0 c -0.0383,-0.223555 -0.0628,-0.45199 -0.0628,-0.686014 0,-0.234105 0.0245,-0.46235 0.0628,-0.686004 l -2.37118,0 c 0.280026,-0.802572 1.037407,-1.372768 1.940815,-1.372768 0.297856,0 0.579763,0.0623 0.83426,0.173955 0.217167,-0.41417 0.504543,-0.784951 0.844099,-1.101244 -0.497194,-0.281533 -1.069277,-0.44473 -1.678359,-0.44473 -1.886436,0 -3.430076,1.544384 -3.430076,3.430791 0,1.886416 1.54364,3.43004 3.430076,3.43004 0.849869,0 1.62654,-0.315993 2.225962,-0.833491 0.601112,0.517568 1.379912,0.833491 2.230492,0.833491 0.888768,0 1.695918,-0.348022 2.30613,-0.908369 0.611273,0.561147 1.422282,0.907619 2.312191,0.907619 1.886426,0 3.430077,-1.544384 3.430077,-3.4308 0,-1.886416 -1.543651,-3.430041 -3.430077,-3.430041 z m -32.567217,7.7e-4 c -1.8864361,0 -3.4300765,1.544394 -3.4300765,3.430801 0,1.886416 1.5436404,3.43004 3.4300765,3.43004 0.882129,0 1.684429,-0.342602 2.293281,-0.895509 0.610002,0.554137 1.416282,0.895509 2.300081,0.895509 1.137515,0 2.147863,-0.563427 2.772795,-1.422687 0.625172,0.85919 1.635339,1.422687 2.772804,1.422687 0.943218,0 1.800898,-0.385741 2.42261,-1.007447 l -0.005,-0.005 0.002,0 0,-2.215348 -1.372023,0 0,1.571693 c -0.306256,0.179976 -0.663331,0.284384 -1.047557,0.284384 -1.144865,0 -2.058803,-0.913169 -2.058803,-2.058022 0,-1.144854 0.913938,-2.058782 2.058803,-2.058782 0.572433,0 1.086847,0.228194 1.458252,0.599786 l 0.964358,-0.963588 c -0.621732,-0.621916 -1.479412,-1.008237 -2.42263,-1.008237 -1.137535,0 -2.147642,0.563947 -2.772804,1.423457 -0.624932,-0.85959 -1.6352,-1.423457 -2.772805,-1.423457 -1.886426,0 -3.430827,1.544394 -3.430827,3.430801 0,0.510308 0.116189,0.993896 0.318426,1.430256 -0.373155,0.386541 -0.895428,0.627766 -1.480951,0.627766 -1.1448655,0 -2.0580439,-0.913169 -2.0580439,-2.058022 0,-1.144854 0.9131784,-2.058782 2.0580439,-2.058782 0.342126,0 0.662892,0.0827 0.945448,0.227664 0.208967,-0.41307 0.483674,-0.787021 0.81384,-1.105784 -0.515794,-0.311053 -1.116506,-0.493899 -1.759288,-0.493899 z m 32.567217,1.371269 c 1.144856,0 2.058044,0.913168 2.058044,2.058022 0,1.144853 -0.913188,2.058782 -2.058044,2.058782 -1.144865,0 -2.058054,-0.913929 -2.058054,-2.058782 0,-1.144854 0.913189,-2.058022 2.058054,-2.058022 z m -27.973855,7.7e-4 c 1.144855,0 2.058044,0.913928 2.058044,2.058782 0,1.144853 -0.913189,2.058022 -2.058044,2.058022 -1.144866,0 -2.058054,-0.913169 -2.058054,-2.058022 0,-1.144854 0.913188,-2.058782 2.058054,-2.058782 z M 26.57456,8.8594064 c -9.763467,0 -17.7165658,7.9530246 -17.7165658,17.7163876 0,9.763363 7.9530988,17.716387 17.7165658,17.716387 9.763466,0 17.716575,-7.953024 17.716575,-17.716387 0,-9.763363 -7.953109,-17.7163876 -17.716575,-17.7163876 z m -2.853474,3.8280406 2.779254,14.808245 -2.150362,0.404291 1.287093,6.841641 -4.470643,0.83787 0.82616,4.404188 c -5.58505,-1.899586 -9.589719,-7.166253 -9.589719,-13.407888 0,-6.87082 4.845169,-12.574107 11.318217,-13.888347 z m 8.119037,0.730453 c 5.225924,2.084472 8.908087,7.173653 8.908087,13.157894 0,6.651785 -4.549242,12.193956 -10.712754,13.73406 l -0.888659,-4.73036 4.470643,-0.84373 -1.281234,-6.835781 2.150363,-0.404291 L 31.840123,13.4179 Z m -8.074118,8.306447 -3.216759,0.716773 3.13277,1.529265 0.084,-2.246038 z m 7.755762,0.144526 -0.0684,1.794879 -2.507789,-1.222632 2.576148,-0.572247 z"
     style="color:#000000;"
     id="cogneco-v1b" />
</svg>
